<svg id="Layer_3" height="512" viewBox="0 0 64 64" width="512" xmlns="http://www.w3.org/2000/svg" data-name="Layer 3"><path d="m41 28a8.239 8.239 0 0 1 1.93-5.259 9 9 0 0 0 -7.185-14.741 9.1 9.1 0 0 0 -8.745 8.934 8.957 8.957 0 0 0 2.078 5.816 8.216 8.216 0 0 1 1.922 5.25" fill="#f9d266"/><path d="m30 28h12v6h-12z" fill="#686868"/><path d="m40 30v-2h-10v3h9a1 1 0 0 0 1-1z" fill="#939393"/><path d="m32 34a4 4 0 0 0 4 4 4 4 0 0 0 4-4" fill="#b5b5b5"/><path d="m42 17h-2a4 4 0 0 0 -4-4v-2a6.006 6.006 0 0 1 6 6z" fill="#fce797"/><path d="m42.748 42.4 2.851-2.28a5.113 5.113 0 0 1 3.195-1.12 5.108 5.108 0 0 1 2.285.539l.921.461 1.338-.669a3.143 3.143 0 0 1 1.4-.33 3.137 3.137 0 0 1 2.976 2.145l.286.854-12.751 9a16.392 16.392 0 0 1 -9.45 3 16.408 16.408 0 0 1 -3.555-.39l-1.82-.405a14.8 14.8 0 0 0 -10.3 1.456l-.624.339-4.9-9.8 2.4-1.2 3.2-2.13a11.137 11.137 0 0 1 6.171-1.87 11.123 11.123 0 0 1 4.98 1.176l1.649.824h8a3.983 3.983 0 0 1 1.748.4" fill="#fbe1ca"/><path d="m46.394 39.6-1.871-.467a4.369 4.369 0 0 0 -1.062-.133 4.386 4.386 0 0 0 -2.629.876l-2.832 2.124h3a3.983 3.983 0 0 1 1.748.4l2.851-2.28a5.094 5.094 0 0 1 .8-.523z" fill="#e8ab95"/><path d="m52 40-7 6a4 4 0 0 0 -2.252-3.6l2.851-2.28a5.113 5.113 0 0 1 3.195-1.12 5.108 5.108 0 0 1 2.285.539z" fill="#f2b9a1"/><path d="m35 46h10v2h-10z" fill="#ffd5b6"/><path d="m14 62 7-4-8-16-7 3z" fill="#3b5892"/><path d="m6 45 6.2 13.172 2.158-1.233a2 2 0 0 0 .8-2.631l-5.448-10.9z" fill="#4c6cb5"/><g fill="#fce797"><path d="m35 1h2v4h-2z"/><path d="m44.379 5.5h4.243v2h-4.243z" transform="matrix(.707 -.707 .707 .707 9.023 34.784)"/><path d="m24.5 4.379h2v4.243h-2z" transform="matrix(.707 -.707 .707 .707 2.873 19.935)"/><path d="m46.5 22.379h2v4.243h-2z" transform="matrix(.707 -.707 .707 .707 -3.412 40.763)"/><path d="m23.379 24.5h4.243v2h-4.243z" transform="matrix(.707 -.707 .707 .707 -10.562 25.5)"/><path d="m48 15h4v2h-4z"/><path d="m20 15h4v2h-4z"/></g></svg>